<?xml version="1.0" encoding="utf-8"?>
<!-- Generator: Adobe Illustrator 18.1.0, SVG Export Plug-In . SVG Version: 6.00 Build 0)  -->
<!DOCTYPE svg PUBLIC "-//W3C//DTD SVG 1.1//EN" "http://www.w3.org/Graphics/SVG/1.1/DTD/svg11.dtd">
<svg version="1.1" id="Layer_1" xmlns="http://www.w3.org/2000/svg" xmlns:xlink="http://www.w3.org/1999/xlink" x="0px" y="0px"
	 viewBox="79 79 142 142" enable-background="new 79 79 142 142" xml:space="preserve">
<g id="Nhb130_1_">
	<g>
		<path fill="#999999" d="M149.9,213.2c-33.2,0.2-63.2-26.6-63.1-63.3c0.1-37.1,30.5-63.4,63.6-63.1c33.3,0.2,62.9,26.9,62.8,63.3
			C213.2,186.6,183.4,213.5,149.9,213.2z M207.9,150.2c0.4-30-23.7-58.1-57.9-58.1c-33.4,0-57.8,27.2-57.9,57.8
			C92,180.7,116.5,208,150,208C183.8,208,208.1,180.4,207.9,150.2z"/>
		<path fill="#999999" d="M150.3,172.6c-11.5,0-22.9,0-34.4,0c-0.3,0-0.5,0-0.8,0c-3.7-0.1-4.6-1.6-2.8-4.8
			c5.7-10.3,11.5-20.6,17.3-31c2-3.6,4-7.1,6-10.7c0.3-0.5,0.5-1,0.8-1.4c1.4-2.1,3.1-2.2,4.5-0.1c1.1,1.6,2,3.3,2.9,4.9
			c1.7,3,3.5,6,5.2,8.9c1,1.6,1.1,1.6,2-0.1c2.4-4.2,4.7-8.4,7.1-12.6c0.3-0.6,0.6-1.1,1-1.6c1.1-1.3,2.6-1.3,3.7,0
			c0.5,0.5,0.8,1.2,1.2,1.8c8,13.7,16,27.5,24.2,41.2c2.5,4.2,0.7,5.7-3.3,5.7C173.4,172.5,161.9,172.6,150.3,172.6z M126.1,167.7
			c2.2,0,4.4-0.1,6.5,0c1.3,0,2.2-0.3,2.9-1.5c3.6-6.6,7.3-13.2,11-19.8c0.6-1,0.6-1.8,0-2.7c-2.3-3.9-4.6-7.8-6.9-11.7
			c-0.8-1.4-1-1.4-1.7,0c-2.6,4.7-5.3,9.3-7.9,14c-3.8,6.7-7.5,13.5-11.3,20.2c-0.8,1.4-0.7,1.5,0.9,1.5
			C121.8,167.7,124,167.7,126.1,167.7z M174.4,167.7c2.2,0,4.4,0,6.6,0c1.8,0,1.9-0.1,1.1-1.6c-6.7-11.4-13.3-22.8-20-34.2
			c-0.8-1.4-1-1.4-1.7-0.1c-2.3,3.9-4.4,7.9-6.7,11.9c-0.5,0.9-0.4,1.6,0.1,2.5c3.9,6.7,7.8,13.3,11.7,20c0.6,1,1.3,1.4,2.4,1.4
			C170,167.6,172.2,167.7,174.4,167.7z M150.2,167.6c2.9,0,5.8,0,8.7,0c1.3,0,1.4-0.5,0.8-1.5c-2.9-4.9-5.8-9.9-8.7-14.8
			c-0.6-1-1-1.2-1.7,0c-2.8,5-5.6,10-8.4,15c-0.7,1.2,0,1.3,1,1.3C144.7,167.6,147.4,167.6,150.2,167.6z"/>
	</g>
</g>
</svg>
