<?xml version="1.0" encoding="utf-8"?>
<!-- Generator: Adobe Illustrator 18.1.0, SVG Export Plug-In . SVG Version: 6.00 Build 0)  -->
<!DOCTYPE svg PUBLIC "-//W3C//DTD SVG 1.1//EN" "http://www.w3.org/Graphics/SVG/1.1/DTD/svg11.dtd">
<svg version="1.1" id="Layer_1" xmlns="http://www.w3.org/2000/svg" xmlns:xlink="http://www.w3.org/1999/xlink" x="0px" y="0px"
	 viewBox="0 0 300 230" enable-background="new 0 0 300 230" xml:space="preserve">
<g id="Nhb130_1_">
	<g>
		<path fill="#FFFFFF" d="M148.8,145.1c-33.2,0.2-63.2-26.6-63.1-63.3c0.1-37.1,30.5-63.4,63.6-63.1c33.3,0.2,62.9,26.9,62.8,63.3
			C212.1,118.5,182.3,145.4,148.8,145.1z M206.8,82.1c0.4-30-23.7-58.1-57.9-58.1C115.5,24,91.1,51.2,91,81.8
			c-0.1,30.8,24.4,58.1,57.9,58.1C182.7,139.9,207,112.3,206.8,82.1z"/>
		<path fill="#FFFFFF" d="M158.7,189.8c0-5.9,0-11.8,0-17.8c0-1.3,0.3-2.4,1.6-2.8c1.4-0.4,2.5,0,3.4,1.1c0.4,0.6,0.8,1.2,1.2,1.8
			c1.5,2.7,3,5.4,4.5,8.1c2.8,5.2,5.7,10.4,8.5,15.6c0.9,1.7,1,1.7,1.9,0c4.3-7.9,8.6-15.8,12.9-23.7c0.5-0.9,1.2-1.9,2.1-2.4
			c2.2-1.2,3.7-0.3,4,2.2c0.2,1.3,0.3,2.7,0.3,4.1c0,10.3,0,20.6,0,30.9c0,0.7-0.1,1.5-0.1,2.2c-0.2,1.4-1,2.1-2.4,2.1
			c-1.4,0-2.1-0.6-2.3-2.1c-0.1-0.8-0.1-1.6-0.1-2.5c0-7.8,0-15.7,0-23.5c0-0.6,0-1.3,0-1.9c0-0.2-0.1-0.3-0.1-0.5
			c-0.2,0.1-0.5,0.2-0.6,0.3c-0.4,0.5-0.7,1.1-1,1.7c-3.4,6.2-6.8,12.5-10.2,18.7c-0.8,1.4-1.4,3.1-3.4,3.1c-1.9,0-2.4-1.7-3.2-3
			c-3.5-6.1-7-12.2-10.4-18.2c-0.3-0.6-0.6-1.1-1-1.6c-0.1-0.2-0.4-0.2-0.6-0.4c0,0.2-0.1,0.3-0.1,0.5c0,0.6,0,1.3,0,1.9
			c0,7.7,0,15.5,0,23.2c0,0.8,0,1.6-0.1,2.4c-0.2,1.1-0.9,1.8-2,1.8c-1.2,0-2-0.6-2.2-1.7c-0.2-0.9-0.2-1.8-0.2-2.7
			C158.6,201,158.6,195.4,158.7,189.8C158.6,189.8,158.7,189.8,158.7,189.8z"/>
		<path fill="#FFFFFF" d="M12.8,190.1c0-5.6,0-11.1,0-16.7c0-0.6,0-1.3,0-1.9c0-1.1,0.5-2,1.5-2.3c1.1-0.4,2.2-0.3,3,0.6
			c0.7,0.8,1.3,1.8,1.8,2.7c3.6,6.6,7.2,13.2,10.9,19.9c0.4,0.8,0.9,1.6,1.3,2.4c0.5,0.8,1,1.5,1.5,2.3c0.5-0.7,1.1-1.4,1.5-2.2
			c1.8-3.2,3.5-6.4,5.2-9.6c2.4-4.4,4.8-8.8,7.2-13.2c0.3-0.5,0.5-1,0.8-1.4c0.8-1.2,2-1.7,3.3-1.5c1.4,0.2,1.9,1.5,2.3,2.8
			c0.1,0.4,0.1,0.9,0.1,1.4c0,11,0,22-0.1,33c0,1-0.2,2-0.4,3c-0.3,1.2-1.1,1.9-2.4,1.8c-1.3-0.1-1.9-1.1-2-2.2
			c-0.1-0.8-0.1-1.6-0.1-2.5c0-7.8,0-15.7,0-23.5c0-0.6,0-1.3,0-1.9c0-0.2-0.1-0.3-0.1-0.5c-0.2,0.1-0.5,0.2-0.6,0.4
			c-0.4,0.5-0.6,1.1-1,1.7c-3.2,5.8-6.4,11.7-9.5,17.5c-0.4,0.8-0.8,1.6-1.3,2.4c-1.7,2.7-3.8,2.7-5.4-0.1
			c-3.3-5.7-6.4-11.5-9.6-17.2c-0.9-1.6-2-3.1-3.1-4.6c-0.1,1.8-0.1,3.6-0.1,5.4c0,6.9,0,13.8,0,20.8c0,0.8,0,1.6-0.1,2.5
			c-0.1,1.1-0.7,1.8-1.9,1.9c-1.3,0.1-2.2-0.4-2.4-1.7c-0.2-0.8-0.1-1.6-0.1-2.4C12.8,201.4,12.8,195.7,12.8,190.1z"/>
		<path fill="#FFFFFF" d="M90.8,190c0-5.6,0-11.3,0-16.9c0-1.6-0.4-3.5,1.8-4c2.1-0.5,3.2,0.9,4.1,2.4c4,6.3,8,12.6,12,18.9
			c2,3.1,4,6.3,6,9.4c0.3,0.4,0.8,0.7,1.1,1c0.1-0.4,0.2-0.9,0.2-1.3c0-5,0-10,0-15c0-3.5,0-7.1,0-10.6c0-1.1,0-2.2,0.5-3.2
			c0.3-0.7,1.2-1.4,1.9-1.6c1.1-0.3,1.9,0.6,2.2,1.6c0.2,0.8,0.3,1.6,0.3,2.4c0,11.4,0,22.7,0,34.1c0,1.6,0,3.2-1.9,3.8
			c-1.5,0.5-2.7-0.1-4-2.1c-5-7.7-9.9-15.5-14.9-23.2c-1-1.6-2-3.2-3.1-4.8c-0.4-0.6-0.9-1.1-1.4-1.6c-0.1,0.7-0.4,1.5-0.4,2.2
			c0,8.5,0,16.9,0,25.4c0,0.9-0.1,1.8-0.3,2.7c-0.2,0.9-0.9,1.6-2,1.5c-1.2,0-1.9-0.7-2.1-1.8c-0.2-0.9-0.2-1.8-0.2-2.7
			C90.8,201.1,90.8,195.6,90.8,190C90.8,190,90.8,190,90.8,190z"/>
		<path fill="#FFFFFF" d="M212.2,208.2c0.2-0.5,0.4-1.4,0.7-2.2c4.4-11.2,8.8-22.3,13.2-33.5c0.3-0.7,0.5-1.4,0.9-2
			c1.3-2.2,3.6-2.2,5,0c0.4,0.6,0.7,1.3,0.9,2c4.4,11.1,8.7,22.1,13.1,33.2c0.3,0.7,0.5,1.4,0.7,2.1c0.4,1.5-0.2,2.7-1.6,3.2
			c-1.2,0.4-2.3,0.1-2.9-1.3c-0.9-2.2-1.7-4.4-2.5-6.6c-0.9-2.3-0.9-2.3-3.4-2.3c-4.5,0-9.1,0-13.6,0c-2.7,0-2.7,0.1-3.7,2.7
			c-0.8,2-1.5,4.1-2.5,6.1c-0.4,0.7-1.4,1.5-2.2,1.6C213.1,211.3,212.1,210.1,212.2,208.2z M229.3,196.2c2,0,4,0,6,0
			c1.2,0,1.7-0.4,1.3-1.6c-2.2-5.8-4.4-11.5-6.6-17.3c-0.1-0.2-0.3-0.4-0.5-0.6c-0.1,0.2-0.3,0.4-0.4,0.6c-0.8,1.9-1.5,3.9-2.3,5.8
			c-1.4,3.7-2.9,7.4-4.3,11.2c-0.6,1.7-0.5,1.8,1.3,1.8C225.7,196.3,227.5,196.2,229.3,196.2z"/>
		<path fill="#FFFFFF" d="M265.3,188.6c0,5.3,0,10.5,0,15.8c0,2.1,0.1,2.1,2.1,2.1c5.5,0,10.9,0,16.4,0c2.6,0,3.4,0.6,3.4,2.1
			c0,1.4-0.8,2-3.2,2.1c-6.7,0.1-13.4,0.1-20.2,0c-3,0-3.4-0.7-3.4-3.7c0-11.5,0-22.9,0-34.4c0-0.8,0.1-1.7,0.5-2.4
			c0.4-0.7,1.3-1.4,2-1.4c0.7,0,1.6,0.7,2,1.4c0.4,0.7,0.4,1.7,0.4,2.6C265.3,178.3,265.3,183.5,265.3,188.6z"/>
		<path fill="#FFFFFF" d="M137.4,190.1c0-5.8,0-11.6,0-17.5c0-2.7,0.6-3.5,2.3-3.6c1.8-0.1,2.7,1,2.7,3.6c0,11.6,0,23.3,0,34.9
			c0,0.1,0,0.2,0,0.3c-0.1,2.4-1,3.4-2.7,3.3c-1.6-0.1-2.3-1-2.3-3.4C137.3,201.9,137.4,196,137.4,190.1
			C137.4,190.1,137.4,190.1,137.4,190.1z"/>
		<path fill="#FFFFFF" d="M69.5,190c0-5.5,0-11.1,0-16.6c0-0.9,0-1.8,0.1-2.7c0.1-1,0.8-1.6,1.9-1.7c1.1-0.1,2.1,0.2,2.4,1.3
			c0.3,0.9,0.5,2,0.5,2.9c0,11.3,0,22.5,0,33.8c0,0.8-0.1,1.6-0.3,2.4c-0.3,1.2-1.3,1.7-2.5,1.7c-1.3,0-2-0.8-2.1-2.1
			c-0.1-0.7-0.1-1.5-0.1-2.2C69.5,201.3,69.6,195.6,69.5,190C69.5,190,69.5,190,69.5,190z"/>
		<path fill="#FFFFFF" d="M149.2,104.5c-11.5,0-22.9,0-34.4,0c-0.3,0-0.5,0-0.8,0c-3.7-0.1-4.6-1.6-2.8-4.8
			c5.7-10.3,11.5-20.6,17.3-31c2-3.6,4-7.1,6-10.7c0.3-0.5,0.5-1,0.8-1.4c1.4-2.1,3.1-2.2,4.5-0.1c1.1,1.6,2,3.3,2.9,4.9
			c1.7,3,3.5,6,5.2,8.9c1,1.6,1.1,1.6,2-0.1c2.4-4.2,4.7-8.4,7.1-12.6c0.3-0.6,0.6-1.1,1-1.6c1.1-1.3,2.6-1.3,3.7,0
			c0.5,0.5,0.8,1.2,1.2,1.8c8,13.7,16,27.5,24.2,41.2c2.5,4.2,0.7,5.7-3.3,5.7C172.3,104.4,160.8,104.5,149.2,104.5z M125,99.6
			c2.2,0,4.4-0.1,6.5,0c1.3,0,2.2-0.3,2.9-1.5c3.6-6.6,7.3-13.2,11-19.8c0.6-1,0.6-1.8,0-2.7c-2.3-3.9-4.6-7.8-6.9-11.7
			c-0.8-1.4-1-1.4-1.7,0c-2.6,4.7-5.3,9.3-7.9,14c-3.8,6.7-7.5,13.5-11.3,20.2c-0.8,1.4-0.7,1.5,0.9,1.5
			C120.7,99.6,122.9,99.6,125,99.6z M173.3,99.6c2.2,0,4.4,0,6.6,0c1.8,0,1.9-0.1,1.1-1.6c-6.7-11.4-13.3-22.8-20-34.2
			c-0.8-1.4-1-1.4-1.7-0.1c-2.3,3.9-4.4,7.9-6.7,11.9c-0.5,0.9-0.4,1.6,0.1,2.5c3.9,6.7,7.8,13.3,11.7,20c0.6,1,1.3,1.4,2.4,1.4
			C168.9,99.5,171.1,99.6,173.3,99.6z M149.1,99.5c2.9,0,5.8,0,8.7,0c1.3,0,1.4-0.5,0.8-1.5c-2.9-4.9-5.8-9.9-8.7-14.8
			c-0.6-1-1-1.2-1.7,0c-2.8,5-5.6,10-8.4,15c-0.7,1.2,0,1.3,1,1.3C143.6,99.5,146.3,99.5,149.1,99.5z"/>
	</g>
</g>
</svg>
